<?xml version="1.0" encoding="UTF-8" standalone="no"?>
<svg
   xmlns:dc="http://purl.org/dc/elements/1.1/"
   xmlns:cc="http://creativecommons.org/ns#"
   xmlns:rdf="http://www.w3.org/1999/02/22-rdf-syntax-ns#"
   xmlns:svg="http://www.w3.org/2000/svg"
   xmlns="http://www.w3.org/2000/svg"
   xmlns:sodipodi="http://sodipodi.sourceforge.net/DTD/sodipodi-0.dtd"
   xmlns:inkscape="http://www.inkscape.org/namespaces/inkscape"
   height="512pt"
   viewBox="0 -40 512.00014 512"
   width="512pt"
   version="1.1"
   id="svg28"
   sodipodi:docname="parrot.svg"
   inkscape:export-filename="/Users/yanghengyi/11.png"
   inkscape:export-xdpi="16.609667"
   inkscape:export-ydpi="16.609667"
   inkscape:version="1.0.2 (e86c8708, 2021-01-15)">
  <metadata
     id="metadata34">
    <rdf:RDF>
      <cc:Work
         rdf:about="">
        <dc:format>image/svg+xml</dc:format>
        <dc:type
           rdf:resource="http://purl.org/dc/dcmitype/StillImage" />
      </cc:Work>
    </rdf:RDF>
  </metadata>
  <defs
     id="defs32" />
  <sodipodi:namedview
     pagecolor="#ffffff"
     bordercolor="#666666"
     borderopacity="1"
     objecttolerance="10"
     gridtolerance="10"
     guidetolerance="10"
     inkscape:pageopacity="0"
     inkscape:pageshadow="2"
     inkscape:window-width="1440"
     inkscape:window-height="768"
     id="namedview30"
     showgrid="false"
     inkscape:object-nodes="false"
     inkscape:snap-others="false"
     inkscape:zoom="0.56203869"
     inkscape:cx="116.5556"
     inkscape:cy="357.05994"
     inkscape:window-x="0"
     inkscape:window-y="25"
     inkscape:window-maximized="0"
     inkscape:current-layer="svg28" />
  <path
     d="m 189.81016,318.66562 c -3.71315,0 -6.72308,3.06485 -6.72308,6.84574 v 49.72243 l -31.74011,4.90167 c -3.66899,0.56385 -6.19311,4.05418 -5.63597,7.79011 0.50279,3.39 3.36663,5.81836 6.63475,5.81836 0.33632,0 0.67604,-0.0242 1.01576,-0.0761 l 18.82733,-2.90572 -9.74659,10.97948 c -2.49015,2.80194 -2.27613,7.12939 0.47901,9.66498 1.28414,1.18304 2.89782,1.76765 4.50469,1.76765 1.8345,0 3.6588,-0.76102 4.98711,-2.2554 l 22.3808,-25.20713 c 0.0136,-0.0138 0.0204,-0.0311 0.034,-0.045 1.06332,-1.21417 1.702,-2.81232 1.702,-4.54538 v -55.60997 c 0,-3.78089 -3.00993,-6.84574 -6.71968,-6.84574 z m 0,0"
     fill="#ffa812"
     id="path10"
     style="stroke-width:0.877583" />
  <path
     d="m 260.88995,328.75263 c 0,-3.7809 -3.00993,-6.84229 -6.72308,-6.84229 -3.70975,0 -6.71968,3.06139 -6.71968,6.84229 v 52.71116 l -31.74011,4.90168 c -3.67238,0.56385 -6.19311,4.05417 -5.63937,7.7901 0.50619,3.39001 3.37003,5.81836 6.63815,5.81836 0.33292,0 0.67264,-0.0242 1.01576,-0.0761 l 18.82733,-2.90572 -9.74999,10.97947 c -2.48675,2.80195 -2.27273,7.1294 0.47901,9.66499 1.28754,1.18304 2.89782,1.76764 4.5047,1.76764 1.83449,0 3.66219,-0.76102 4.9871,-2.25539 l 22.3842,-25.20713 c 0.0102,-0.0138 0.017,-0.0242 0.0238,-0.038 1.07012,-1.21764 1.7122,-2.81579 1.7122,-4.5523 z m 0,0"
     fill="#ffa812"
     id="path12"
     style="stroke-width:0.877583" />
  <path
     d="M 264.45702,144.79971 C 241.4715,128.30283 222.52867,106.64137 209.14027,81.458445 197.19569,58.980614 174.431,33.673166 133.22626,37.813818 61.066159,45.064285 19.630411,183.50807 103.79965,275.80623 c 84.16922,92.29816 218.58996,43.81759 247.72441,19.42337 0,0 60.2393,78.81769 92.4856,83.39766 23.28446,3.31044 63.38511,-56.28452 36.19046,-78.03938 -20.07071,-16.06102 -142.129,-102.95247 -215.7431,-155.78817 z m 0,0"
     fill="#aee295"
     id="path14"
     style="stroke-width:0.877583" />
  <path
     d="m 452.07463,353.99089 c -26.60693,-3.7809 -74.46001,-60.439 -90.38952,-80.15294 -2.93518,-3.62869 -8.06497,-4.39663 -11.94458,-1.84375 C 311.01236,297.46077 190.77157,337.6981 111.86462,251.16987 67.670332,202.71005 58.117382,141.53423 69.443675,93.299255 47.72872,143.73428 51.652495,218.62233 103.79965,275.80623 c 84.16583,92.29816 218.58656,43.81759 247.72441,19.42337 0,0 60.2359,78.81769 92.4856,83.39766 17.06078,2.42489 43.15134,-28.92923 45.17607,-54.42001 -9.52577,17.27866 -25.4315,31.44405 -37.1111,29.78364 z m 0,0"
     fill="#98db7c"
     id="path16"
     style="stroke-width:0.877583" />
  <path
     d="m 120.0451,173.92957 c -19.99597,0.86134 -19.28596,-25.42852 -35.106759,-6.15045 -9.406869,11.46031 -17.087957,19.76583 -23.155371,24.00334 6.036839,9.17032 16.490049,16.68714 34.536016,13.53236 20.964174,-3.66675 25.998844,-18.54127 26.063384,-31.82111 -0.75078,0.24906 -1.52874,0.40127 -2.33727,0.43586 z m 0,0"
     fill="#ff9a00"
     id="path18"
     style="stroke-width:0.877583" />
  <path
     d="m 120.0451,173.92957 c 18.57593,-0.79562 21.95275,-60.40095 -19.43204,-66.53064 -42.196723,-6.25076 -58.863426,33.84127 -56.329109,66.5341 2.537715,32.68936 15.365572,24.6675 40.657787,-6.15391 15.817402,-19.27807 15.107392,7.01179 35.103362,6.15045 z m 0,0"
     fill="#ffc265"
     id="path20"
     style="stroke-width:0.877583" />
  <path
     d="m 122.27366,147.04819 c -21.4126,0.92014 -20.65502,-27.23768 -37.596904,-6.59322 -21.619832,26.34866 -34.736454,37.13788 -40.528693,22.61619 -0.186847,3.66329 -0.139286,7.30582 0.135888,10.86187 2.537715,32.68936 15.365572,24.6675 40.657787,-6.15391 15.817402,-19.27807 15.107392,7.01179 35.103362,6.15045 9.92664,-0.42548 15.50825,-17.64188 12.24353,-34.51928 -2.44259,4.54884 -5.87377,7.45802 -10.01497,7.6379 z m 0,0"
     fill="#ffb541"
     id="path22"
     style="stroke-width:0.877583" />
  <path
     d="m 250.40616,264.79216 c -18.57254,0 -34.84176,-5.10922 -47.5813,-11.13859 -27.09273,-12.82669 -43.83078,-32.06326 -44.5306,-32.87616 -2.44259,-2.84346 -2.16402,-7.16745 0.62848,-9.65807 2.78911,-2.48716 7.03222,-2.20696 9.47821,0.63303 0.23781,0.27328 15.91592,18.16076 40.49812,29.68333 32.30745,15.14088 64.27518,12.68832 95.01652,-7.2989 3.12883,-2.03054 7.28361,-1.10002 9.28117,2.0859 1.99756,3.18591 1.08031,7.41651 -2.04852,9.45051 -21.69457,14.10313 -42.3462,19.11895 -60.74208,19.11895 z m 0,0"
     fill="#82d361"
     id="path24"
     style="stroke-width:0.877583" />
  <path
     d="m 159.27266,86.778682 c -7.64712,0 -13.6398,7.575633 -13.6398,17.250998 0,9.6719 5.99268,17.25099 13.6398,17.25099 7.65051,0 13.64318,-7.57909 13.64318,-17.25099 0,-9.675365 -5.99267,-17.250998 -13.64318,-17.250998 z m 0,0"
     fill="#433f43"
     id="path26"
     style="stroke-width:0.877583" />
</svg>
