<?xml version="1.0" encoding="utf-8"?>
<!-- Generator: Adobe Illustrator 25.0.1, SVG Export Plug-In . SVG Version: 6.00 Build 0)  -->
<svg version="1.1" id="图层_1" xmlns="http://www.w3.org/2000/svg" xmlns:xlink="http://www.w3.org/1999/xlink" x="0px" y="0px"
	 viewBox="0 0 512 512" style="enable-background:new 0 0 512 512;" xml:space="preserve">
<style type="text/css">
	.st0{fill:#8F9D72;stroke:#000000;stroke-miterlimit:10;}
	.st1{display:none;}
	.st2{display:inline;fill:#FFA812;}
	.st3{display:inline;fill:#AEE295;}
	.st4{display:inline;fill:#98DB7C;}
	.st5{display:inline;fill:#FF9A00;}
	.st6{display:inline;fill:#FFC265;}
	.st7{display:inline;fill:#FFB541;}
	.st8{display:inline;fill:#82D361;}
	.st9{display:inline;fill:#433F43;}
	.st10{fill:#FFA812;}
	.st11{fill:#AEE295;}
	.st12{fill:#98DB7C;}
	.st13{fill:#FF9A00;}
	.st14{fill:#FFC265;}
	.st15{fill:#FFB541;}
	.st16{fill:#82D361;}
	.st17{fill:#433F43;}
	.st18{display:inline;}
</style>
<g id="图层_4">
	<rect class="st0" width="512" height="512"/>
</g>
<g id="svg28" inkscape:export-filename="/Users/yanghengyi/11.png" inkscape:export-xdpi="16.609667" inkscape:export-ydpi="16.609667" inkscape:version="1.0.2 (e86c8708, 2021-01-15)" sodipodi:docname="parrot.svg" xmlns:cc="http://creativecommons.org/ns#" xmlns:dc="http://purl.org/dc/elements/1.1/" xmlns:inkscape="http://www.inkscape.org/namespaces/inkscape" xmlns:rdf="http://www.w3.org/1999/02/22-rdf-syntax-ns#" xmlns:sodipodi="http://sodipodi.sourceforge.net/DTD/sodipodi-0.dtd" xmlns:svg="http://www.w3.org/2000/svg" class="st1">
	
		<sodipodi:namedview  bordercolor="#666666" borderopacity="1" gridtolerance="10" guidetolerance="10" id="namedview30" inkscape:current-layer="svg28" inkscape:cx="116.5556" inkscape:cy="357.05994" inkscape:object-nodes="false" inkscape:pageopacity="0" inkscape:pageshadow="2" inkscape:snap-others="false" inkscape:window-height="768" inkscape:window-maximized="0" inkscape:window-width="1440" inkscape:window-x="0" inkscape:window-y="25" inkscape:zoom="0.56203869" objecttolerance="10" pagecolor="#ffffff" showgrid="false">
		</sodipodi:namedview>
	<path id="path10" class="st2" d="M192.4,345.2c-3.3,0-6,2.8-6,6.2v44.7l-28.5,4.4c-3.3,0.5-5.6,3.6-5.1,7c0.5,3,3,5.2,6,5.2
		c0.3,0,0.6,0,0.9-0.1l16.9-2.6l-8.8,9.9c-2.2,2.5-2,6.4,0.4,8.7c1.2,1.1,2.6,1.6,4,1.6c1.6,0,3.3-0.7,4.5-2l20.1-22.7l0,0
		c1-1.1,1.5-2.5,1.5-4.1v-50C198.4,348,195.7,345.2,192.4,345.2L192.4,345.2z"/>
	<path id="path12" class="st2" d="M256.3,354.3c0-3.4-2.7-6.2-6-6.2s-6,2.8-6,6.2v47.4l-28.5,4.4c-3.3,0.5-5.6,3.6-5.1,7
		c0.5,3,3,5.2,6,5.2c0.3,0,0.6,0,0.9-0.1l16.9-2.6l-8.8,9.9c-2.2,2.5-2,6.4,0.4,8.7c1.2,1.1,2.6,1.6,4,1.6c1.6,0,3.3-0.7,4.5-2
		l20.1-22.7l0,0c1-1.1,1.5-2.5,1.5-4.1v-52.7H256.3z"/>
	<path id="path14" class="st3" d="M259.5,188.9c-20.7-14.8-37.7-34.3-49.7-56.9c-10.7-20.2-31.2-43-68.2-39.2
		c-64.9,6.5-102.1,131-26.5,213.9s196.5,39.4,222.7,17.5c0,0,54.2,70.9,83.1,75c20.9,3,57-50.6,32.5-70.2
		C435.4,314.5,325.7,236.4,259.5,188.9L259.5,188.9z"/>
	<path id="path16" class="st4" d="M428.1,377c-23.9-3.4-66.9-54.3-81.3-72.1c-2.6-3.3-7.2-4-10.7-1.7
		c-34.8,22.9-142.9,59.1-213.8-18.7C82.6,241,74,186,84.2,142.6c-19.5,45.3-16,112.7,30.9,164.1c75.7,83,196.5,39.4,222.7,17.5
		c0,0,54.1,70.9,83.1,75c15.3,2.2,38.8-26,40.6-48.9C452.9,365.8,438.6,378.5,428.1,377L428.1,377z"/>
	<path id="path18" class="st5" d="M129.7,215.1c-18,0.8-17.3-22.9-31.6-5.5c-8.5,10.3-15.4,17.8-20.8,21.6c5.4,8.2,14.8,15,31,12.2
		c18.8-3.3,23.4-16.7,23.4-28.6C131.1,215,130.4,215.1,129.7,215.1L129.7,215.1z"/>
	<path id="path20" class="st6" d="M129.7,215.1c16.7-0.7,19.7-54.3-17.5-59.8c-37.9-5.6-52.9,30.4-50.6,59.8
		c2.3,29.4,13.8,22.2,36.5-5.5C112.3,192.3,111.7,215.9,129.7,215.1z"/>
	<path id="path22" class="st7" d="M131.7,191c-19.2,0.8-18.6-24.5-33.8-5.9c-19.4,23.7-31.2,33.4-36.4,20.3
		c-0.2,3.3-0.1,6.6,0.1,9.8c2.3,29.4,13.8,22.2,36.5-5.5c14.2-17.3,13.6,6.3,31.6,5.5c8.9-0.4,13.9-15.9,11-31
		C138.5,188.2,135.4,190.8,131.7,191L131.7,191z"/>
	<path id="path24" class="st8" d="M246.8,296.8c-16.7,0-31.3-4.6-42.8-10c-24.4-11.5-39.4-28.8-40-29.6c-2.2-2.6-1.9-6.4,0.6-8.7
		c2.5-2.2,6.3-2,8.5,0.6c0.2,0.2,14.3,16.3,36.4,26.7c29,13.6,57.8,11.4,85.4-6.6c2.8-1.8,6.5-1,8.3,1.9s1,6.7-1.8,8.5
		C282,292.3,263.4,296.8,246.8,296.8L246.8,296.8z"/>
	<path id="path26" class="st9" d="M164.9,136.8c-6.9,0-12.3,6.8-12.3,15.5s5.4,15.5,12.3,15.5c6.9,0,12.3-6.8,12.3-15.5
		S171.8,136.8,164.9,136.8z"/>
</g>
<g id="图层_5">
	<path id="path10_1_" class="st10" d="M320.5,547.6c-5.8,0-10.6,4.8-10.6,10.8v78.2l-49.9,7.7c-5.8,0.9-9.7,6.4-8.9,12.3
		c0.8,5.3,5.3,9.2,10.4,9.2c0.5,0,1.1,0,1.6-0.1l29.6-4.6l-15.3,17.3c-3.9,4.4-3.6,11.2,0.8,15.2c2,1.9,4.6,2.8,7.1,2.8
		c2.9,0,5.8-1.2,7.8-3.5l35.2-39.6c0,0,0,0,0.1-0.1c1.7-1.9,2.7-4.4,2.7-7.1v-87.5C331.1,552.4,326.4,547.6,320.5,547.6L320.5,547.6
		z"/>
	<path id="path12_1_" class="st10" d="M432.3,563.5c0-5.9-4.7-10.8-10.6-10.8c-5.8,0-10.6,4.8-10.6,10.8v82.9l-49.9,7.7
		c-5.8,0.9-9.7,6.4-8.9,12.3c0.8,5.3,5.3,9.2,10.4,9.2c0.5,0,1.1,0,1.6-0.1l29.6-4.6l-15.3,17.3c-3.9,4.4-3.6,11.2,0.8,15.2
		c2,1.9,4.6,2.8,7.1,2.8c2.9,0,5.8-1.2,7.8-3.5l35.2-39.6c0,0,0,0,0-0.1c1.7-1.9,2.7-4.4,2.7-7.2L432.3,563.5L432.3,563.5z"/>
	<path id="path14_1_" class="st11" d="M437.9,274.2c-36.1-25.9-65.9-60-87-99.6c-18.8-35.4-54.6-75.2-119.4-68.6
		C118,117.4,52.9,335.1,185.2,480.3s343.8,68.9,389.6,30.5c0,0,94.7,124,145.4,131.2c36.6,5.2,99.7-88.5,56.9-122.7
		C745.7,493.9,553.7,357.3,437.9,274.2L437.9,274.2z"/>
	<path id="path16_1_" class="st12" d="M733,603.2c-41.8-5.9-117.1-95.1-142.2-126.1c-4.6-5.7-12.7-6.9-18.8-2.9
		c-60.9,40.1-250,103.3-374.1-32.7c-69.5-76.2-84.5-172.4-66.7-248.3c-34.2,79.3-28,197.1,54,287c132.4,145.2,343.8,68.9,389.6,30.5
		c0,0,94.7,124,145.4,131.2c26.8,3.8,67.9-45.5,71-85.6C776.4,583.5,751.4,605.8,733,603.2L733,603.2z"/>
	<path id="path18_1_" class="st13" d="M210.8,320c-31.4,1.4-30.3-40-55.2-9.7c-14.8,18-26.9,31.1-36.4,37.7
		c9.5,14.4,25.9,26.2,54.3,21.3c33-5.8,40.9-29.2,41-50C213.3,319.7,212.1,319.9,210.8,320L210.8,320z"/>
	<path id="path20_1_" class="st14" d="M210.8,320c29.2-1.3,34.5-95-30.6-104.6c-66.4-9.8-92.6,53.2-88.6,104.6s24.2,38.8,63.9-9.7
		C180.5,280,179.4,321.3,210.8,320z"/>
	<path id="path22_1_" class="st15" d="M214.3,277.7c-33.7,1.4-32.5-42.8-59.1-10.4c-34,41.4-54.6,58.4-63.7,35.6
		c-0.3,5.8-0.2,11.5,0.2,17.1c4,51.4,24.2,38.8,63.9-9.7c24.9-30.3,23.8,11,55.2,9.7c15.6-0.7,24.4-27.7,19.3-54.3
		C226.2,272.9,220.8,277.4,214.3,277.7L214.3,277.7z"/>
	<path id="path24_1_" class="st16" d="M415.8,462.9c-29.2,0-54.8-8-74.8-17.5c-42.6-20.2-68.9-50.4-70-51.7
		c-3.8-4.5-3.4-11.3,1-15.2c4.4-3.9,11.1-3.5,14.9,1c0.4,0.4,25,28.6,63.7,46.7c50.8,23.8,101.1,20,149.4-11.5
		c4.9-3.2,11.5-1.7,14.6,3.3s1.7,11.7-3.2,14.9C477.2,455,444.8,462.9,415.8,462.9L415.8,462.9z"/>
	<path id="path26_1_" class="st17" d="M272.5,182.9c-12,0-21.5,11.9-21.5,27.1c0,15.2,9.4,27.1,21.5,27.1c12,0,21.5-11.9,21.5-27.1
		C294,194.8,284.5,182.9,272.5,182.9z"/>
</g>
<g id="图层_3" class="st1">
	<g class="st18">
		<path class="st11" d="M254.1,194.1c-19.5-13.7-35.5-31.7-46.9-52.7c-10.1-18.7-29.4-39.8-64.3-36.3c-61.1,6-96.2,121.2-24.9,198
			s185.2,36.4,209.8,16.2c0,0,51,65.6,78.3,69.4c19.7,2.8,53.7-46.8,30.7-64.9C419.9,310.3,316.5,238,254.1,194.1z"/>
		<path class="st12" d="M413,368.1c-22.5-3.1-63.1-50.3-76.6-66.7c-2.5-3-6.8-3.7-10.1-1.5c-32.8,21.2-134.7,54.7-201.5-17.3
			c-37.4-40.3-45.5-91.2-35.9-131.3c-18.4,42-15.1,104.3,29.1,151.8c71.3,76.8,185.2,36.4,209.8,16.2c0,0,51,65.6,78.3,69.4
			c14.5,2,36.6-24.1,38.3-45.3C436.4,357.7,422.9,369.5,413,368.1z"/>
		<path class="st13" d="M131.8,218.3c-16.9,0.7-16.3-21.2-29.7-5.1c-8,9.5-14.5,16.4-19.6,20c5.1,7.6,14,13.9,29.3,11.3
			c17.8-3,22-15.4,22.1-26.5C133.1,218.2,132.5,218.3,131.8,218.3z"/>
		<path class="st14" d="M131.8,218.3c15.7-0.7,18.6-50.2-16.5-55.3c-35.7-5.2-49.9,28.2-47.7,55.3c2.1,27.2,13,20.5,34.4-5.1
			C115.5,197.2,114.9,219,131.8,218.3z"/>
		<path class="st15" d="M133.7,195.9c-18.1,0.8-17.5-22.7-31.8-5.5c-18.3,21.9-29.4,30.9-34.3,18.8c-0.2,3-0.1,6.1,0.1,9
			c2.1,27.2,13,20.5,34.4-5.1c13.4-16,12.8,5.8,29.7,5.1c8.4-0.4,13.1-14.7,10.4-28.7C140.1,193.4,137.2,195.8,133.7,195.9z"/>
		<path d="M440.4,319.2c-13.4-10.5-79-56.6-136.8-97.3c-16.5-11.6-32.3-22.7-46.2-32.5c-2.6-1.8-6.1-1.2-7.9,1.4
			c-1.8,2.6-1.2,6.1,1.4,7.9c13.8,9.7,29.7,20.9,46.2,32.5c57.8,40.6,123.2,86.6,136.4,96.9c3.1,2.4,9.5,9.9,2.2,27.1
			c-7,16.5-21.4,28.7-28.5,27.7c-5.3-0.7-18.1-5.8-43.2-31.4c-2.2-2.2-5.8-2.3-8-0.1c-2.2,2.2-2.3,5.8-0.1,8.1
			c21.2,21.6,37.5,33,49.7,34.7c0.8,0.1,1.6,0.2,2.4,0.2c6.5,0,13.9-3.5,21.1-10.2c7-6.5,13.3-15.4,17.1-24.5
			C453.3,342.6,451.3,327.8,440.4,319.2z"/>
		<path d="M332.3,315.7c-1.9-2.5-5.7-2.9-8.1-0.9c-8.8,7.3-36,20.6-71.3,25.6c-28.3,4-69.7,3.7-106.4-20.6c-2.6-1.7-6.2-1-7.9,1.6
			s-1,6.2,1.6,7.9c14.7,9.7,29.9,15.8,44.9,19.5v36.8l-26.9,4.1c-3.1,0.5-5.2,3.4-4.8,6.5c0.5,3.1,3.4,5.2,6.5,4.8l16-2.4l-8.3,9.1
			c-2.1,2.3-1.9,5.9,0.4,8c2.3,2.1,6,1.9,8-0.4l19-21l0,0c0.9-1,1.4-2.3,1.4-3.8v-39.4c10.3,1.8,20.3,2.5,29.7,2.5
			c4.6,0,9.1-0.2,13.5-0.5V391l-26.9,4.1c-3.1,0.5-5.2,3.4-4.8,6.5c0.5,3.1,3.4,5.2,6.5,4.8l15.9-2.4l-8.3,9.1
			c-2.1,2.3-1.9,5.9,0.4,8c2.3,2.1,6,1.9,8-0.4l19-21l0,0c0.9-1,1.4-2.3,1.4-3.8v-43.7c1.2-0.1,2.3-0.3,3.5-0.5
			c30.2-4.3,57.7-15.1,72.2-24.7c2.9,3.6,7.5,9.1,13.2,15.6c2.1,2.4,5.7,2.6,8,0.5c2.4-2.1,2.6-5.7,0.5-8
			C339,324.3,332.4,315.8,332.3,315.7z"/>
		<path d="M122.2,299.2c-13.9-14.9-24.3-32.4-30.7-51.1c6.7,2.9,14.1,3.1,21.1,1.9c16.1-2.8,25.4-12.9,26.7-28.6
			c5.3-3.8,8.8-11.5,9.3-21.4c0.9-18.2-8.8-39.3-32.4-42.7c-9-1.3-17.3-0.4-24.6,2.5c10.2-28.1,29.7-46.9,51.9-49.1
			c25.6-2.5,45.4,8.7,58.7,33.4c8,14.8,18.3,28.2,30.5,39.8c2.2,2.1,5.9,2,8-0.2c2.2-2.3,2.1-5.9-0.2-8
			c-11.3-10.8-20.9-23.2-28.3-37c-10.8-20-31.7-43-69.9-39.3c-30.5,3-56.2,30.7-65.8,70.8c-12.5,13.5-15.8,33.7-14.7,48.5
			c0.7,9,2.6,19.7,10.6,22.2c1.6,0.5,3.4,0.6,5.1,0.4c6.3,24.2,18.8,46.7,36.3,65.5c2.5,2.7,5.1,5.3,7.8,7.8c2.3,2.1,5.9,2,8-0.3
			c2.1-2.3,2-5.9-0.3-8C126.9,304.1,124.5,301.7,122.2,299.2z M110.7,238.8c-8.6,1.5-15.2-0.1-20.2-4.8c4.7-4.2,9.8-9.9,15.9-17.2
			c2.2-2.7,3.5-3.5,4-3.8c0.7,0.4,1.8,1.6,2.7,2.4c3,3,7.4,7.2,14.5,8.3C125.9,232.3,120.4,237.1,110.7,238.8z M86.6,176.2
			c5.8-5.4,12.9-8.1,21.4-8.1c2.1,0,4.2,0.2,6.4,0.5c19,2.8,23.2,20.7,22.7,30.9c-0.4,8.3-3.6,13.1-5.7,13.2
			c-4.9,0.2-7.5-2.3-10.5-5.3c-2.7-2.7-6.1-6-11.1-5.7c-5.2,0.3-9.3,4.4-12.3,7.9c-6.3,7.6-11.1,12.7-14.9,16.1
			c-4.1,3.6-6.1,4.3-6.7,4.4c-0.5-0.6-2-3.2-2.8-12.2C72,201.4,77.2,185.1,86.6,176.2z"/>
		<path d="M201.9,284.6c10.8,5,24.6,9.3,40.3,9.3c15.6,0,33.1-4.2,51.5-15.9c2.7-1.7,3.4-5.2,1.7-7.9c-1.7-2.7-5.2-3.4-7.9-1.7
			c-26,16.6-53.1,18.7-80.5,6.1c-20.8-9.6-34.1-24.5-34.3-24.7c-2.1-2.4-5.7-2.6-8-0.5c-2.4,2.1-2.6,5.7-0.5,8
			C164.8,258,178.9,274,201.9,284.6z"/>
		<path d="M176.5,160.2c0-8-5.1-14.4-11.6-14.4s-11.6,6.3-11.6,14.4c0,8,5.1,14.4,11.6,14.4C171.5,174.5,176.5,168.2,176.5,160.2z"
			/>
	</g>
</g>
</svg>
